  <svg
        xmlns="http://www.w3.org/2000/svg"
        width="147"
        height="49"
        viewBox="0 0 147 49"
        fill="none"
      >
        <path
          d="M14.6767 47.8506L0 9.64543H9.06504L20.2345 40.5451H16.5113L27.8426 9.64543H36.7997L21.9611 47.8506H14.6767Z"
          fill="#0A0A0B"
        />
        <path
          d="M44.9036 48.5C43.3568 48.5 41.828 48.3016 40.3172 47.9047C38.8423 47.5079 37.4574 46.9487 36.1624 46.2272C34.9033 45.4696 33.8242 44.6037 32.9248 43.6297L37.6192 38.8675C38.4826 39.8055 39.5078 40.5451 40.6949 41.0862C41.882 41.5913 43.177 41.8439 44.5799 41.8439C45.5511 41.8439 46.2886 41.6995 46.7922 41.4109C47.3318 41.1223 47.6016 40.7255 47.6016 40.2204C47.6016 39.571 47.2778 39.084 46.6303 38.7593C46.0188 38.3985 45.2274 38.0919 44.2561 37.8393C43.2849 37.5507 42.2597 37.2441 41.1805 36.9194C40.1013 36.5947 39.0761 36.1437 38.1049 35.5665C37.1336 34.9893 36.3422 34.1956 35.7307 33.1855C35.1192 32.1392 34.8134 30.8224 34.8134 29.2351C34.8134 27.5395 35.2451 26.0784 36.1084 24.8517C36.9717 23.5891 38.1948 22.597 39.7776 21.8754C41.3604 21.1539 43.2129 20.7931 45.3353 20.7931C47.5656 20.7931 49.616 21.19 51.4866 21.9837C53.3931 22.7413 54.9399 23.8777 56.127 25.3929L51.4326 30.155C50.6053 29.1809 49.67 28.4955 48.6268 28.0986C47.6196 27.7018 46.6303 27.5034 45.6591 27.5034C44.7238 27.5034 44.0223 27.6477 43.5547 27.9363C43.087 28.1888 42.8532 28.5676 42.8532 29.0727C42.8532 29.6139 43.159 30.0468 43.7705 30.3715C44.382 30.6962 45.1734 30.9848 46.1447 31.2373C47.1159 31.4899 48.1412 31.7965 49.2203 32.1573C50.2995 32.518 51.3247 33.0051 52.296 33.6184C53.2672 34.2317 54.0586 35.0614 54.6702 36.1077C55.2817 37.1178 55.5874 38.4527 55.5874 40.1122C55.5874 42.6736 54.6162 44.712 52.6737 46.2272C50.7671 47.7424 48.1771 48.5 44.9036 48.5Z"
          fill="#0A0A0B"
        />
        <path
          d="M73.0165 48.4459C70.1747 48.4459 67.6386 47.8687 65.4083 46.7142C63.214 45.5237 61.4873 43.8822 60.2283 41.7897C58.9693 39.6973 58.3397 37.3343 58.3397 34.7007C58.3397 32.0671 58.9513 29.7221 60.1743 27.6657C61.4334 25.5733 63.1241 23.9318 65.2464 22.7413C67.3688 21.5507 69.761 20.9555 72.4229 20.9555C75.0129 20.9555 77.2972 21.5147 79.2757 22.633C81.2542 23.7514 82.801 25.3027 83.9161 27.2869C85.0672 29.2711 85.6428 31.544 85.6428 34.1054C85.6428 34.5744 85.6068 35.0795 85.5349 35.6206C85.4989 36.1257 85.409 36.721 85.2651 37.4064L62.6564 37.4605V31.7785L81.7578 31.7244L78.1965 34.1054C78.1605 32.5902 77.9267 31.3455 77.495 30.3715C77.0634 29.3613 76.4159 28.6037 75.5525 28.0986C74.7252 27.5575 73.7 27.2869 72.4769 27.2869C71.1819 27.2869 70.0488 27.5936 69.0775 28.2069C68.1422 28.7841 67.4048 29.6139 66.8652 30.6962C66.3616 31.7785 66.1098 33.0953 66.1098 34.6466C66.1098 36.1979 66.3796 37.5327 66.9192 38.6511C67.4947 39.7334 68.2861 40.5812 69.2933 41.1945C70.3365 41.7717 71.5596 42.0603 72.9625 42.0603C74.2575 42.0603 75.4266 41.8439 76.4698 41.4109C77.513 40.9419 78.4303 40.2565 79.2217 39.3546L83.7542 43.9002C82.4592 45.4154 80.8944 46.5519 79.0598 47.3095C77.2253 48.0671 75.2108 48.4459 73.0165 48.4459Z"
          fill="#0A0A0B"
        />
        <path
          d="M106.948 47.8506V32.8608C106.948 31.4899 106.517 30.3895 105.653 29.5598C104.826 28.6939 103.765 28.261 102.47 28.261C101.571 28.261 100.779 28.4594 100.096 28.8563C99.4122 29.217 98.8726 29.7582 98.4769 30.4797C98.0812 31.1652 97.8834 31.9588 97.8834 32.8608L94.6998 31.2914C94.6998 29.2351 95.1495 27.4312 96.0488 25.8799C96.9481 24.3286 98.1891 23.1381 99.7719 22.3083C101.391 21.4425 103.207 21.0096 105.222 21.0096C107.164 21.0096 108.873 21.4786 110.348 22.4166C111.859 23.3185 113.046 24.5271 113.909 26.0423C114.772 27.5575 115.204 29.217 115.204 31.0209V47.8506H106.948ZM89.6277 47.8506V21.5507H97.8834V47.8506H89.6277Z"
          fill="#0A0A0B"
        />
        <path
          d="M137.287 47.8506L128.115 34.2136L137.234 21.5507H146.46L135.453 35.783L135.723 32.3737L147 47.8506H137.287ZM120.506 47.8506V8.56313H128.762V47.8506H120.506Z"
          fill="#0A0A0B"
        />
        <path
          d="M58.4788 8.33933V15.1561L72.0555 8.33933L85.4581 15.1561V8.33933L72.0555 0.5L58.4788 8.33933Z"
          fill="#B2FF53"
        />
      </svg>